<svg width="151" height="34" viewBox="0 0 151 34" fill="none" xmlns="http://www.w3.org/2000/svg">
<g clip-path="url(#clip0_75_11191)">
<path d="M44.0867 9.13867H50.3921C53.8849 9.13867 55.6982 10.5708 55.6982 13.2599V13.3938C55.748 14.1818 55.5133 14.9616 55.0368 15.5912C54.5603 16.2208 53.8737 16.6585 53.1018 16.8247C54.0262 16.9061 54.8812 17.3488 55.4811 18.0568C56.081 18.7647 56.3775 19.6807 56.3061 20.6059V20.6987C56.3061 23.635 54.3794 25.1805 50.6806 25.1805H44.0867V9.13867ZM49.8049 15.7223C51.5564 15.7223 52.2467 15.0938 52.2467 13.6617V13.569C52.2467 12.2296 51.4842 11.6217 49.7842 11.6217H47.6309V15.7429L49.8049 15.7223ZM50.1139 22.6562C51.9067 22.6562 52.7206 21.8423 52.7206 20.3896V20.2969C52.7206 18.8132 51.9067 18.0611 49.9388 18.0611H47.6309V22.6666L50.1139 22.6562Z" fill="#1D2D35"/>
<path d="M57.254 21.9145C57.254 19.1739 59.7576 18.1436 63.3534 18.1436H64.6721V17.68C64.6721 16.2891 64.2497 15.5266 62.7661 15.5266C62.5259 15.4981 62.2825 15.5191 62.0507 15.5882C61.819 15.6573 61.6038 15.7731 61.4185 15.9285C61.2332 16.0839 61.0816 16.2756 60.9732 16.4917C60.8647 16.7079 60.8017 16.944 60.7879 17.1854H57.697C57.9031 14.4036 60.0976 13.1672 62.9721 13.1672C65.8467 13.1672 67.8764 14.3315 67.8764 17.5151V25.16H64.7134V23.7484C64.3164 24.3078 63.7812 24.7546 63.16 25.0453C62.5388 25.336 61.8529 25.4607 61.1691 25.4072C59.0467 25.4072 57.254 24.3769 57.254 21.9145ZM64.6721 21.0594V20.0291H63.4152C61.5297 20.0291 60.4376 20.4412 60.4376 21.6878C60.4376 22.543 60.9528 23.0994 62.1376 23.0994C63.5697 23.1406 64.6721 22.3575 64.6721 21.0594Z" fill="#1D2D35"/>
<path d="M69.2467 21.4818H72.2758C72.4097 22.5121 72.9249 23.1406 74.3364 23.1406C75.5934 23.1406 76.1806 22.6769 76.1806 21.863C76.1806 21.0491 75.48 20.7194 73.8006 20.4824C70.7097 20.0084 69.4734 19.1121 69.4734 16.8248C69.4734 14.5375 71.7194 13.1672 74.1097 13.1672C76.7164 13.1672 78.6637 14.1151 78.9522 16.8042H75.9746C75.7994 15.8357 75.2534 15.3927 74.1406 15.3927C73.0279 15.3927 72.4819 15.8872 72.4819 16.5981C72.4819 17.3091 73.0382 17.6284 74.7382 17.8757C77.6746 18.2981 79.2922 19.04 79.2922 21.5539C79.2922 24.0678 77.4582 25.4072 74.357 25.4072C71.2558 25.4072 69.36 24.0163 69.2467 21.4818Z" fill="#1D2D35"/>
<path d="M80.1267 19.4418V19.2666C80.0876 18.4614 80.2162 17.6569 80.5043 16.904C80.7924 16.1511 81.2338 15.4663 81.8004 14.8929C82.367 14.3195 83.0466 13.87 83.796 13.573C84.5454 13.2759 85.3483 13.1377 86.1539 13.1672C89.183 13.1672 91.8721 14.9393 91.8721 19.1327V20.029H83.4545C83.537 21.9763 84.5982 23.12 86.36 23.12C87.8642 23.12 88.606 22.4709 88.8121 21.4818H91.903C91.5218 24.0163 89.5024 25.4278 86.2982 25.4278C82.7024 25.4072 80.1267 23.1921 80.1267 19.4418ZM88.7091 18.0303C88.606 16.2581 87.6994 15.4545 86.1539 15.4545C85.4582 15.4512 84.7882 15.7177 84.2848 16.1981C83.7815 16.6784 83.4838 17.3351 83.4545 18.0303H88.7091Z" fill="#1D2D35"/>
<path d="M92.7273 19.4416V19.2664C92.688 18.4594 92.8172 17.6531 93.1065 16.8988C93.3959 16.1444 93.8391 15.4586 94.408 14.8848C94.9768 14.3111 95.6589 13.8621 96.4108 13.5664C97.1627 13.2706 97.9679 13.1346 98.7752 13.167C101.495 13.167 103.999 14.3519 104.298 17.721H101.207C101.186 17.4318 101.108 17.1497 100.976 16.8914C100.844 16.6332 100.662 16.404 100.44 16.2176C100.218 16.0311 99.9607 15.8912 99.6836 15.8061C99.4065 15.721 99.115 15.6925 98.8267 15.7222C97.1473 15.7222 96.0242 16.9792 96.0242 19.2252V19.4004C96.0242 21.7598 97.0545 22.9652 98.8988 22.9652C99.2126 22.9833 99.5268 22.9387 99.8232 22.8341C100.12 22.7296 100.392 22.5671 100.625 22.3561C100.858 22.1452 101.047 21.89 101.18 21.6054C101.314 21.3209 101.389 21.0126 101.402 20.6986H104.339C104.164 23.4804 102.144 25.407 98.7339 25.407C95.3236 25.407 92.7273 23.2743 92.7273 19.4416Z" fill="#1D2D35"/>
<path d="M105.091 21.9145C105.091 19.1739 107.595 18.1436 111.18 18.1436H112.509V17.68C112.509 16.2891 112.076 15.5266 110.603 15.5266C110.361 15.4951 110.116 15.5137 109.881 15.5814C109.647 15.6492 109.429 15.7645 109.242 15.9202C109.054 16.0759 108.901 16.2686 108.791 16.4863C108.681 16.704 108.618 16.942 108.604 17.1854H105.513C105.719 14.4036 107.914 13.1672 110.778 13.1672C113.642 13.1672 115.693 14.3315 115.693 17.5151V25.16H112.53V23.7484C112.133 24.3078 111.598 24.7546 110.976 25.0453C110.355 25.336 109.669 25.4607 108.985 25.4072C106.925 25.4072 105.091 24.3769 105.091 21.9145ZM112.509 21.0594V20.0291H111.273C109.387 20.0291 108.285 20.4412 108.285 21.6878C108.285 22.543 108.81 23.0994 109.995 23.0994C111.448 23.1406 112.55 22.3575 112.55 21.0594H112.509Z" fill="#1D2D35"/>
<path d="M117.98 13.3939H121.225V15.1866C121.579 14.5497 122.1 14.0213 122.732 13.6582C123.364 13.2951 124.082 13.1111 124.811 13.126C125.506 13.0704 126.201 13.241 126.791 13.6123C127.382 13.9837 127.836 14.5359 128.087 15.1866C128.52 14.5404 129.108 14.013 129.797 13.653C130.487 13.293 131.256 13.1118 132.033 13.126C134.207 13.126 135.887 14.4963 135.887 17.6078V25.1188H132.662V18.0097C132.662 16.5054 131.992 15.8357 130.818 15.8357C130.505 15.8221 130.193 15.8761 129.904 15.994C129.614 16.1119 129.353 16.2908 129.139 16.5187C128.925 16.7466 128.762 17.018 128.663 17.3145C128.563 17.6109 128.528 17.9253 128.561 18.2363V25.16H125.326V18.0097C125.326 16.5054 124.636 15.8357 123.492 15.8357C123.179 15.8206 122.866 15.8734 122.575 15.9906C122.284 16.1078 122.022 16.2866 121.807 16.5147C121.591 16.7427 121.428 17.0147 121.328 17.3119C121.227 17.609 121.192 17.9244 121.225 18.2363V25.16H117.98V13.3939Z" fill="#1D2D35"/>
<path d="M138.112 13.3939H141.368V15.2381C141.756 14.593 142.304 14.0595 142.96 13.6893C143.615 13.3192 144.355 13.1251 145.108 13.126C147.982 13.126 150.259 15.2587 150.259 19.1326V19.3181C150.259 23.192 148.065 25.366 145.108 25.366C144.356 25.3968 143.61 25.2211 142.95 24.8578C142.291 24.4946 141.744 23.9577 141.368 23.3054V29.1575H138.112V13.3939ZM146.921 19.3387V19.1533C146.921 16.7836 145.757 15.6193 144.119 15.6193C142.481 15.6193 141.255 16.8042 141.255 19.1533V19.3387C141.255 21.6878 142.378 22.8314 144.15 22.8314C145.922 22.8314 146.921 21.6363 146.921 19.3799V19.3387Z" fill="#1D2D35"/>
<path d="M1.76184 18.2673C4.45093 10.6431 9.60245 1.78247 19.9982 1.78247C30.394 1.78247 35.5352 15.4546 36.1843 24.7273C33.454 29.4667 26.9115 31.2491 19.9982 31.2491C17.1999 31.2947 14.4248 30.7356 11.8625 29.61C9.30012 28.4844 7.011 26.8189 5.15154 24.7273C5.15154 24.7273 8.4073 15.9388 11.4467 15.9182C13.6824 15.9182 15.5679 20.0394 17.3503 20.0394C19.1328 20.0394 22.8418 12.1267 22.8418 12.1267" stroke="#1D2D35" stroke-width="3.41" stroke-linecap="round" stroke-linejoin="round"/>
</g>
<defs>
<clipPath id="clip0_75_11191">
<rect width="150.424" height="34" fill="white"/>
</clipPath>
</defs>
</svg>
