<svg width="272" height="34" viewBox="0 0 272 34" fill="none" xmlns="http://www.w3.org/2000/svg">
<g clip-path="url(#clip0_55_46432)">
<path d="M142.094 2.58984H145.294L138.894 25.832H135.762L130.655 10.4922H130.519L125.345 25.832H122.213L115.609 2.58984H118.809L123.847 20.8516H123.983L129.157 5.71094H132.017L137.192 20.8516H137.328L142.094 2.58984Z" fill="#5F6368"/>
<mask id="mask0_55_46432" style="mask-type:luminance" maskUnits="userSpaceOnUse" x="0" y="0" width="273" height="34">
<path d="M0 0H272.068V34H0V0Z" fill="white"/>
</mask>
<g mask="url(#mask0_55_46432)">
<path d="M144.953 17.8633C144.953 15.4284 145.748 13.4141 147.336 11.8203C148.925 10.2266 150.945 9.42969 153.396 9.42969C155.847 9.42969 157.844 10.2266 159.387 11.8203C160.976 13.4141 161.77 15.4284 161.77 17.8633C161.77 20.3424 160.976 22.3789 159.387 23.9727C157.799 25.5664 155.801 26.3633 153.396 26.3633C150.99 26.3633 148.97 25.5664 147.336 23.9727C145.748 22.3789 144.953 20.3424 144.953 17.8633ZM148.017 17.8633C148.017 19.5898 148.539 20.9844 149.583 22.0469C150.627 23.1094 151.898 23.6406 153.396 23.6406C154.894 23.6406 156.165 23.1094 157.209 22.0469C158.252 20.9844 158.752 19.5898 158.706 17.8633C158.706 16.181 158.207 14.8086 157.209 13.7461C156.165 12.6836 154.894 12.1523 153.396 12.1523C151.898 12.1523 150.627 12.6836 149.583 13.7461C148.539 14.8086 148.017 16.181 148.017 17.8633ZM167.013 25.832H163.949V9.89453H166.877V12.5508H167.013C167.33 11.6654 167.989 10.9349 168.987 10.3594C169.986 9.78385 170.939 9.47396 171.847 9.42969C172.709 9.42969 173.458 9.5625 174.094 9.82812L173.14 12.75C172.777 12.6172 172.187 12.5508 171.37 12.5508C170.19 12.5508 169.169 12.9935 168.306 13.8789C167.444 14.7643 167.013 15.8268 167.013 17.0664V25.832ZM189.889 25.832H186.145L181.106 18.3281L178.587 20.7852V25.832H175.523V2.58984H178.587V16.9336L185.668 9.89453H189.549V10.0273L183.217 16.2031L189.889 25.6992V25.832Z" fill="#5F6368"/>
<path d="M203.166 21.4492C203.166 22.8216 202.553 23.9948 201.328 24.9688C200.102 25.9427 198.513 26.4076 196.562 26.3633C194.928 26.3633 193.498 25.9427 192.272 25.1016C191.065 24.3088 190.138 23.1726 189.617 21.8477L192.34 20.7188C192.749 21.6484 193.316 22.3789 194.043 22.9102C194.773 23.4325 195.656 23.7118 196.562 23.707C197.56 23.707 198.377 23.5078 199.013 23.1094C199.648 22.7109 199.989 22.224 200.034 21.6484C200.034 20.6302 199.24 19.8776 197.651 19.3906L194.791 18.7266C191.614 17.9297 190.026 16.4245 190.026 14.2109C190.026 12.75 190.638 11.5768 191.864 10.6914C193.089 9.80599 194.633 9.36328 196.494 9.36328C197.946 9.36328 199.262 9.71745 200.443 10.4258C201.623 11.1341 202.44 12.0195 202.894 13.082L200.17 14.2109C199.863 13.5343 199.337 12.9746 198.672 12.6172C197.939 12.2411 197.118 12.058 196.289 12.0859C195.526 12.0536 194.769 12.2382 194.111 12.6172C193.475 13.0156 193.157 13.5026 193.157 14.0781C193.157 15.0078 194.043 15.6497 195.813 16.0039L198.264 16.668C201.532 17.4206 203.166 19.0143 203.166 21.4492ZM213.787 26.3633C212.607 26.3633 211.518 26.1198 210.519 25.6328C209.521 25.1458 208.772 24.4818 208.272 23.6406H208.136L208.272 25.832V32.8711H205.208V9.89453H208.136V12.1523H208.272C208.772 11.3112 209.521 10.6471 210.519 10.1602C211.518 9.67318 212.63 9.42969 213.855 9.42969C215.989 9.42969 217.804 10.2487 219.302 11.8867C220.845 13.5247 221.617 15.5169 221.617 17.8633C221.617 20.2539 220.845 22.2682 219.302 23.9062C217.804 25.5443 215.989 26.3633 213.855 26.3633M213.311 23.6406C214.808 23.6406 216.057 23.1094 217.055 22.0469C218.054 20.9844 218.553 19.5898 218.553 17.8633C218.553 16.2253 218.054 14.8529 217.055 13.7461C216.057 12.6393 214.808 12.1081 213.311 12.1523C211.813 12.1523 210.565 12.6836 209.566 13.7461C208.613 14.8529 208.136 16.2253 208.136 17.8633C208.136 19.5898 208.613 20.9844 209.566 22.0469C210.565 23.1094 211.813 23.6406 213.311 23.6406ZM229.991 9.42969C232.261 9.42969 234.054 10.0052 235.37 11.1562C236.687 12.3073 237.345 13.9232 237.345 16.0039V25.832H234.417V23.6406H234.281C233.01 25.4557 231.308 26.3633 229.174 26.3633C227.404 26.3633 225.906 25.8542 224.681 24.8359C223.455 23.8177 222.843 22.5117 222.843 20.918C222.843 19.2799 223.478 17.974 224.749 17C226.02 16.026 227.745 15.5391 229.923 15.5391C231.739 15.5391 233.237 15.849 234.417 16.4688V15.8047C234.417 14.7422 233.986 13.8568 233.123 13.1484C232.316 12.4535 231.273 12.075 230.196 12.0859C228.471 12.0859 227.109 12.7943 226.111 14.2109L223.387 12.5508C224.885 10.4701 227.087 9.42969 229.991 9.42969ZM226.043 20.9844C226.043 21.7812 226.383 22.4232 227.064 22.9102C227.745 23.3971 228.539 23.6628 229.447 23.707C230.718 23.707 231.852 23.2422 232.851 22.3125C233.85 21.3828 234.372 20.2982 234.417 19.0586C233.464 18.306 232.125 17.9297 230.4 17.9297C229.174 17.9297 228.13 18.2174 227.268 18.793C226.406 19.3685 225.997 20.099 226.043 20.9844ZM247.762 26.3633C245.311 26.3633 243.291 25.5664 241.702 23.9727C240.113 22.3346 239.319 20.2982 239.319 17.8633C239.319 15.4284 240.113 13.4141 241.702 11.8203C243.291 10.2266 245.311 9.42969 247.762 9.42969C249.441 9.42969 250.894 9.82812 252.119 10.625C253.345 11.4219 254.275 12.5508 254.911 14.0117L252.119 15.1406C251.257 13.1484 249.736 12.1523 247.557 12.1523C246.15 12.1523 244.925 12.7057 243.881 13.8125C242.882 14.9193 242.383 16.2695 242.383 17.8633C242.383 19.457 242.882 20.8294 243.881 21.9805C244.925 23.0872 246.15 23.6406 247.557 23.6406C249.782 23.6406 251.347 22.6445 252.255 20.6523L255.047 21.7812C254.411 23.2422 253.458 24.3711 252.187 25.168C250.916 25.9648 249.441 26.3633 247.762 26.3633ZM264.238 26.3633C261.833 26.3633 259.858 25.5664 258.315 23.9727C256.772 22.3789 256 20.3424 256 17.8633C256 15.4727 256.749 13.4583 258.247 11.8203C259.745 10.1823 261.674 9.38542 264.034 9.42969C266.485 9.42969 268.414 10.1823 269.821 11.6875C271.228 13.1927 271.955 15.3398 272 18.1289V18.4609H259.132C259.177 20.0104 259.699 21.2721 260.698 22.2461C261.696 23.2201 262.922 23.6849 264.374 23.6406C266.326 23.6406 267.869 22.6888 269.004 20.7852L271.728 22.1133C271.021 23.409 269.96 24.4891 268.664 25.2344C267.393 25.987 265.918 26.3633 264.238 26.3633ZM259.336 15.9375H268.732C268.641 14.8307 268.187 13.9232 267.37 13.2148C266.553 12.5065 265.418 12.1523 263.966 12.1523C262.831 12.1523 261.855 12.4844 261.038 13.1484C260.221 13.8125 259.654 14.7422 259.336 15.9375Z" fill="#5F6368"/>
</g>
<mask id="mask1_55_46432" style="mask-type:luminance" maskUnits="userSpaceOnUse" x="0" y="0" width="273" height="34">
<path d="M0 0H272.068V34H0V0Z" fill="white"/>
</mask>
<g mask="url(#mask1_55_46432)">
<path d="M13.7532 15.6719V12.0195H26.1447C26.2868 12.764 26.3552 13.5201 26.3489 14.2773C26.3489 16.9336 25.6 20.3203 23.1489 22.6445C20.766 25.1016 17.7702 26.3633 13.6851 26.3633C6.26383 26.3633 0 20.4531 0 13.2148C0 5.97656 6.26383 0 13.6851 0C17.8383 0 20.766 1.59375 23.0128 3.65234L20.3574 6.17578C18.9743 4.88832 17.2309 4.02975 15.3475 3.70861C13.4641 3.38747 11.5254 3.61819 9.77648 4.37159C8.02754 5.12499 6.54689 6.36725 5.52173 7.94131C4.49657 9.51537 3.97294 11.3506 4.01702 13.2148C4.01702 18.5273 8.30638 22.7773 13.6851 22.7773C17.2255 22.7773 19.2681 21.3828 20.5617 20.1211C21.583 19.125 22.2638 17.6641 22.5362 15.6719H13.7532Z" fill="#4285F4"/>
<path d="M45.2085 17.8633C45.2085 22.7773 41.2596 26.3633 36.4255 26.3633C31.5915 26.3633 27.7106 22.7773 27.7106 17.8633C27.7106 12.9492 31.6596 9.36328 36.4255 9.36328C41.1915 9.36328 45.2085 12.9492 45.2085 17.8633ZM41.3277 17.8633C41.3277 14.8086 39.0808 12.75 36.4255 12.75C33.7702 12.75 31.5234 14.8086 31.5234 17.8633C31.5234 20.918 33.8383 23.043 36.4255 23.043C39.0128 23.043 41.3277 20.918 41.3277 17.8633Z" fill="#EA4335"/>
<path d="M64.2723 17.8633C64.2723 22.7773 60.3234 26.3633 55.4894 26.3633C50.6553 26.3633 46.7745 22.7773 46.7745 17.8633C46.7745 12.9492 50.7234 9.36328 55.4894 9.36328C60.2553 9.36328 64.2723 12.9492 64.2723 17.8633ZM60.3915 17.8633C60.3915 14.8086 58.1447 12.75 55.4894 12.75C52.834 12.75 50.5872 14.8086 50.5872 17.8633C50.5872 20.918 52.9021 23.043 55.4894 23.043C58.0766 23.043 60.3915 20.918 60.3915 17.8633Z" fill="#FBBC04"/>
<path d="M82.5192 9.89453V25.168C82.5192 31.4102 78.7064 34 74.2128 34C69.9915 34 67.4724 31.2109 66.5192 28.9531L69.8553 27.625C70.4681 29.0195 71.8979 30.6797 74.2128 30.6797C77.1404 30.6797 78.9107 28.8867 78.9107 25.6992V24.4375H78.7745C78.1951 25.0704 77.4799 25.571 76.6797 25.9039C75.8796 26.2367 75.014 26.3936 74.1447 26.3633C69.8553 26.3633 65.8383 22.6445 65.8383 17.9297C65.8383 13.1484 69.8553 9.36328 74.1447 9.36328C76.2553 9.36328 77.8894 10.293 78.7745 11.2891H78.9107V9.89453H82.5192ZM79.183 17.9297C79.183 14.9414 77.1404 12.75 74.4851 12.75C71.8979 12.75 69.6511 14.9414 69.6511 17.9297C69.6511 20.8516 71.8979 23.043 74.4851 23.043C77.1404 23.043 79.183 20.8516 79.183 17.9297Z" fill="#4285F4"/>
<path d="M85.1744 0.996094H88.9872V25.8984H85.1744V0.996094Z" fill="#34A853"/>
<path d="M103.762 20.6523L106.757 22.6445C105.804 23.9727 103.489 26.3633 99.4724 26.3633C94.5022 26.3633 90.8256 22.6445 90.8256 17.8633C90.8256 12.8164 94.5702 9.36328 99.0639 9.36328C103.557 9.36328 105.804 12.8828 106.485 14.8086L106.894 15.7383L95.2511 20.4531C96.1362 22.1797 97.4979 23.043 99.4724 23.043C101.447 23.043 102.74 22.1133 103.762 20.6523ZM94.6383 17.5977L102.4 14.4766C101.992 13.4141 100.698 12.6836 99.2 12.6836C97.2256 12.6836 94.5022 14.3438 94.6383 17.5977Z" fill="#EA4335"/>
</g>
</g>
<defs>
<clipPath id="clip0_55_46432">
<rect width="272" height="34" fill="white"/>
</clipPath>
</defs>
</svg>
