<svg width="215" height="34" viewBox="0 0 215 34" fill="none" xmlns="http://www.w3.org/2000/svg">
<g clip-path="url(#clip0_55_61157)">
<path d="M16.5263 0.000488281H0V16.1563H16.5263V0.000488281Z" fill="#F25022"/>
<path d="M34.7731 0H18.247V16.1557H34.7731V0Z" fill="#7FBA00"/>
<path d="M16.5261 17.8445H0V34.0001H16.5261V17.8445Z" fill="#00A4EF"/>
<path d="M34.7731 17.8445H18.247V34.0001H34.7731V17.8445Z" fill="#FFB900"/>
<path d="M57.4943 19.5905L56.5178 22.2616H56.4623C56.2878 21.6357 55.9956 20.7479 55.5378 19.6195L50.3125 6.80542H45.2036V27.1785H48.573V14.6545C48.573 13.8815 48.556 12.9472 48.5228 11.8782C48.5055 11.3371 48.4425 10.9038 48.4272 10.5735H48.5013C48.6725 11.3413 48.8505 11.9259 48.979 12.3171L55.2448 27.1785H57.6018L63.8209 12.183C63.9622 11.841 64.1115 11.1739 64.2491 10.5735H64.3231C64.2417 12.0576 64.1726 13.414 64.1634 14.2324V27.1785H67.7577V6.80542H62.8517L57.4943 19.5905Z" fill="#737373"/>
<path d="M74.655 12.5786H71.1418V27.1785H74.655V12.5786Z" fill="#737373"/>
<path d="M72.9345 6.37402C72.3556 6.37402 71.8523 6.56739 71.4378 6.94768C71.0218 7.32983 70.8109 7.81205 70.8109 8.38027C70.8109 8.93915 71.0195 9.41157 71.4308 9.78424C71.8404 10.1555 72.3466 10.3434 72.9345 10.3434C73.5226 10.3434 74.0308 10.1555 74.445 9.78478C74.8618 9.41157 75.073 8.93915 75.073 8.38027C75.073 7.83157 74.867 7.35526 74.4617 6.96354C74.0566 6.57229 73.5428 6.37402 72.9345 6.37402Z" fill="#737373"/>
<path d="M87.0922 12.4326C86.4165 12.296 85.7565 12.2268 85.129 12.2268C83.5166 12.2268 82.0794 12.5643 80.8567 13.231C79.6314 13.8982 78.6831 14.8511 78.0395 16.0633C77.3967 17.2725 77.0713 18.6838 77.0713 20.2585C77.0713 21.6383 77.3875 22.9034 78.0112 24.0196C78.6365 25.138 79.5206 26.0119 80.6402 26.6184C81.7589 27.2235 83.0509 27.531 84.4811 27.531C86.1505 27.531 87.5764 27.2047 88.7187 26.561L88.7652 26.5346V23.3889L88.6174 23.4939C88.0993 23.8627 87.5208 24.1572 86.8988 24.3686C86.2775 24.5805 85.7113 24.688 85.2155 24.688C83.837 24.688 82.7308 24.2662 81.9271 23.4346C81.1222 22.6022 80.714 21.4347 80.714 19.9635C80.714 18.4829 81.1389 17.2837 81.9781 16.3995C82.8148 15.5173 83.9235 15.0698 85.2731 15.0698C86.4286 15.0698 87.5532 15.4523 88.6174 16.2072L88.7652 16.3118V12.9966L88.7179 12.9703C88.3172 12.7512 87.7705 12.5704 87.0922 12.4326Z" fill="#737373"/>
<path d="M98.6676 12.3252C97.7852 12.3252 96.9951 12.6025 96.3181 13.1487C95.7242 13.6282 95.2953 14.286 94.9667 15.1069H94.9295V12.5786H91.4166V27.1785H94.9295V19.7099C94.9295 18.4398 95.2242 17.3965 95.8048 16.6091C96.3789 15.8304 97.1431 15.4358 98.0771 15.4358C98.3938 15.4358 98.7491 15.4868 99.1335 15.5873C99.514 15.6877 99.79 15.7968 99.9526 15.9114L100.101 16.0155V12.5532L100.044 12.5298C99.7168 12.3939 99.2536 12.3252 98.6676 12.3252Z" fill="#737373"/>
<path d="M108.209 12.2268C105.746 12.2268 103.79 12.9322 102.396 14.3239C101.002 15.7145 100.295 17.6405 100.295 20.0478C100.295 22.3336 100.985 24.1719 102.346 25.5119C103.706 26.8512 105.558 27.5308 107.849 27.5308C110.236 27.5308 112.154 26.8157 113.548 25.405C114.941 23.9957 115.648 22.0892 115.648 19.7377C115.648 17.415 114.985 15.563 113.677 14.2328C112.369 12.9016 110.529 12.2268 108.209 12.2268ZM111.003 23.4685C110.343 24.2779 109.35 24.6878 108.051 24.6878C106.76 24.6878 105.742 24.2699 105.025 23.4455C104.304 22.6171 103.938 21.4362 103.938 19.9349C103.938 18.3874 104.304 17.1753 105.025 16.3328C105.743 15.4946 106.751 15.0701 108.022 15.0701C109.255 15.0701 110.237 15.4758 110.94 16.2773C111.647 17.0824 112.005 18.2848 112.005 19.8506C112.005 21.4366 111.668 22.6535 111.003 23.4685Z" fill="#737373"/>
<path d="M123.439 18.6114C122.331 18.1765 121.622 17.8157 121.33 17.5399C121.048 17.272 120.904 16.8941 120.904 16.4149C120.904 15.9904 121.082 15.6499 121.445 15.3748C121.81 15.0979 122.319 14.9571 122.958 14.9571C123.551 14.9571 124.157 15.0485 124.76 15.2279C125.362 15.407 125.891 15.6473 126.333 15.941L126.479 16.0378V12.863L126.422 12.8395C126.015 12.6689 125.478 12.5225 124.826 12.404C124.175 12.2864 123.585 12.2268 123.073 12.2268C121.397 12.2268 120.012 12.6457 118.953 13.4717C117.888 14.3026 117.348 15.3921 117.348 16.7109C117.348 17.3961 117.465 18.0051 117.694 18.5205C117.925 19.0392 118.283 19.4962 118.758 19.8786C119.228 20.2577 119.955 20.6555 120.919 21.0608C121.728 21.386 122.333 21.662 122.717 21.8794C123.092 22.0921 123.358 22.3064 123.508 22.5146C123.654 22.7187 123.729 22.9973 123.729 23.3421C123.729 24.3238 122.977 24.8004 121.431 24.8004C120.857 24.8004 120.203 24.6836 119.487 24.4527C118.77 24.2222 118.1 23.8903 117.496 23.4658L117.348 23.3619V26.7096L117.402 26.7341C117.906 26.9608 118.54 27.1527 119.288 27.3034C120.036 27.4545 120.713 27.5309 121.301 27.5309C123.12 27.5309 124.583 27.1097 125.651 26.2792C126.726 25.4431 127.271 24.3278 127.271 22.9626C127.271 21.9784 126.978 21.1343 126.4 20.4542C125.826 19.7792 124.829 19.1589 123.439 18.6114Z" fill="#737373"/>
<path d="M136.717 12.2268C134.254 12.2268 132.299 12.9322 130.904 14.3239C129.51 15.7145 128.803 17.6405 128.803 20.0478C128.803 22.3336 129.493 24.1719 130.854 25.5119C132.215 26.8512 134.066 27.5308 136.357 27.5308C138.744 27.5308 140.661 26.8157 142.056 25.405C143.449 23.9957 144.156 22.0892 144.156 19.7377C144.156 17.415 143.493 15.563 142.185 14.2328C140.877 12.9016 139.037 12.2268 136.717 12.2268ZM139.511 23.4685C138.851 24.2779 137.857 24.6878 136.559 24.6878C135.268 24.6878 134.25 24.2699 133.533 23.4455C132.812 22.6171 132.446 21.4362 132.446 19.9349C132.446 18.3874 132.812 17.1753 133.534 16.3328C134.251 15.4946 135.259 15.0701 136.53 15.0701C137.763 15.0701 138.745 15.4758 139.448 16.2773C140.155 17.0824 140.513 18.2848 140.513 19.8506C140.513 21.4366 140.175 22.6535 139.511 23.4685Z" fill="#737373"/>
<path d="M162.888 15.3794V12.5785H159.33V8.22397L159.21 8.25981L155.868 9.25963L155.802 9.27946V12.5785H150.531V10.7407C150.531 9.88507 150.727 9.23008 151.113 8.79381C151.497 8.36128 152.044 8.14202 152.742 8.14202C153.245 8.14202 153.765 8.25818 154.289 8.48662L154.42 8.54361V5.59353L154.359 5.57207C153.871 5.40024 153.206 5.31323 152.383 5.31323C151.345 5.31323 150.402 5.5349 149.58 5.97164C148.757 6.41008 148.11 7.03568 147.657 7.83093C147.204 8.62494 146.975 9.54218 146.975 10.5574V12.5785H144.498V15.3794H146.975V27.1788H150.531V15.3794H155.802V22.8778C155.802 25.9654 157.293 27.5307 160.231 27.5307C160.714 27.5307 161.223 27.4755 161.741 27.3667C162.27 27.2556 162.629 27.1444 162.841 27.0258L162.888 26.9997V24.1716L162.743 24.2657C162.551 24.392 162.31 24.4946 162.028 24.5709C161.744 24.6487 161.508 24.6875 161.326 24.6875C160.637 24.6875 160.127 24.5064 159.812 24.1487C159.492 23.7874 159.33 23.1564 159.33 22.2722V15.3794H162.888Z" fill="#737373"/>
<path d="M171.36 26.4244V23.3364C172.745 24.3846 174.309 24.9087 176.051 24.9087C177.466 24.9087 178.595 24.6018 179.436 23.988C180.287 23.3742 180.713 22.5432 180.713 21.495C180.713 19.1908 178.867 18.0388 175.175 18.0388H173.527V15.4041H175.101C178.377 15.4041 180.015 14.3181 180.015 12.1462C180.015 10.1442 178.738 9.14321 176.185 9.14321C174.76 9.14321 173.418 9.62954 172.162 10.6022V7.68423C173.607 6.90988 175.314 6.52271 177.283 6.52271C179.174 6.52271 180.688 6.97598 181.826 7.88253C182.964 8.78909 183.533 9.95061 183.533 11.3671C183.533 14.0395 182.108 15.7582 179.258 16.5231V16.5798C180.792 16.7214 182.004 17.2361 182.895 18.1238C183.786 19.002 184.231 20.1021 184.231 21.4242C184.231 23.2467 183.514 24.7199 182.079 25.8436C180.643 26.9579 178.753 27.5151 176.407 27.5151C174.299 27.5151 172.617 27.1515 171.36 26.4244Z" fill="#737373"/>
<path d="M200.581 20.6451C200.581 21.665 200.402 22.5951 200.046 23.4356C199.7 24.276 199.215 25.0032 198.591 25.617C197.968 26.2214 197.225 26.6935 196.364 27.0335C195.513 27.364 194.588 27.5292 193.588 27.5292C192.519 27.5292 191.534 27.3309 190.634 26.9343C189.743 26.5377 188.971 25.9475 188.318 25.1637C187.675 24.3799 187.175 23.4073 186.819 22.2457C186.462 21.0748 186.284 19.7197 186.284 18.1804C186.284 16.3012 186.517 14.6345 186.982 13.1802C187.457 11.7259 188.105 10.5078 188.927 9.52566C189.748 8.54356 190.713 7.79755 191.822 7.28761C192.93 6.77767 194.128 6.52271 195.414 6.52271C196.216 6.52271 196.943 6.57464 197.597 6.67852C198.26 6.78239 198.789 6.92404 199.185 7.10347V10.0639C198.68 9.8184 198.141 9.61065 197.567 9.44067C196.993 9.2707 196.335 9.18571 195.592 9.18571C194.761 9.18571 193.994 9.34624 193.291 9.66731C192.589 9.98838 191.98 10.4605 191.465 11.0838C190.96 11.6976 190.56 12.4625 190.263 13.3785C189.976 14.2851 189.827 15.3333 189.817 16.5231H189.906C190.362 15.8527 190.975 15.3238 191.747 14.9367C192.529 14.5495 193.445 14.3559 194.494 14.3559C195.424 14.3559 196.26 14.5023 197.003 14.795C197.755 15.0783 198.393 15.4938 198.918 16.0415C199.452 16.5798 199.863 17.2408 200.15 18.0246C200.437 18.799 200.581 19.6725 200.581 20.6451ZM197.107 20.9142C197.107 20.3288 197.032 19.7952 196.884 19.3136C196.745 18.832 196.528 18.4212 196.231 18.0813C195.944 17.7319 195.578 17.4627 195.132 17.2739C194.697 17.085 194.182 16.9906 193.588 16.9906C192.994 16.9906 192.47 17.0944 192.015 17.3022C191.569 17.5005 191.193 17.7649 190.886 18.0954C190.579 18.4259 190.347 18.8037 190.188 19.2286C190.04 19.6536 189.966 20.088 189.966 20.5318C189.966 21.0134 190.035 21.5092 190.174 22.0191C190.322 22.5196 190.545 22.9776 190.842 23.3931C191.139 23.8086 191.515 24.1533 191.97 24.4271C192.435 24.6915 192.984 24.8237 193.618 24.8237C194.182 24.8237 194.682 24.7246 195.117 24.5263C195.553 24.328 195.914 24.0541 196.201 23.7047C196.498 23.3553 196.721 22.9445 196.869 22.4724C197.027 21.9908 197.107 21.4714 197.107 20.9142Z" fill="#737373"/>
<path d="M202.426 26.7076V23.5488C203.821 24.4459 205.236 24.8945 206.672 24.8945C208.117 24.8945 209.279 24.5451 210.16 23.8463C211.041 23.138 211.482 22.1984 211.482 21.0274C211.482 19.8754 211.031 18.9783 210.131 18.3361C209.24 17.694 207.958 17.3729 206.286 17.3729C205.711 17.3729 204.549 17.4296 202.797 17.5429L203.554 6.86255H214.035V9.6672H206.419L206.063 14.7524C206.746 14.7146 207.364 14.6957 207.919 14.6957C210.175 14.6957 211.917 15.2482 213.144 16.353C214.381 17.4579 215 18.9688 215 20.8858C215 22.8972 214.292 24.512 212.877 25.7302C211.472 26.9389 209.537 27.5433 207.072 27.5433C204.994 27.5433 203.445 27.2647 202.426 26.7076Z" fill="#737373"/>
</g>
<defs>
<clipPath id="clip0_55_61157">
<rect width="215" height="34" fill="white"/>
</clipPath>
</defs>
</svg>
