<svg width="207" height="34" viewBox="0 0 207 34" fill="none" xmlns="http://www.w3.org/2000/svg">
<g clip-path="url(#clip0_56_67310)">
<path d="M58.8006 21.8306V27.2635H62.7659V22.068C62.7659 21.5638 62.9728 21.0764 63.3473 20.7203C63.7176 20.3647 64.2243 20.1613 64.7485 20.1613H68.8151C70.7096 20.1613 72.5289 19.4365 73.8685 18.1441C75.2076 16.8557 75.961 15.1055 75.961 13.2833C75.961 11.4611 75.2076 9.71091 73.8685 8.41844C72.5289 7.13014 70.7096 6.40552 68.8108 6.40552H58.8006V13.1943H62.7659V9.99485H68.5461C69.4449 9.99485 70.3043 10.3381 70.9388 10.9483C71.5729 11.5586 71.9299 12.3849 71.9299 13.2494C71.9299 14.1139 71.5729 14.9402 70.9388 15.5506C70.3043 16.1608 69.4449 16.5037 68.5461 16.5037H64.3474C63.6206 16.5037 62.898 16.6396 62.2284 16.911C61.5541 17.1778 60.9466 17.5719 60.4309 18.0675C59.9153 18.5636 59.5099 19.1525 59.2282 19.7966C58.946 20.4367 58.8006 21.1316 58.8006 21.8306Z" fill="#1B1340"/>
<path d="M76.5737 27.2637V18.9873C76.5737 15.6102 78.6222 12.9233 82.7238 12.9233C83.3806 12.9148 84.0369 12.9826 84.6799 13.1309V16.5338C84.213 16.5039 83.8124 16.5039 83.6226 16.5039C81.4505 16.5039 80.5167 17.4621 80.5167 19.4027V27.2637H76.5737Z" fill="#1B1340"/>
<path d="M85.861 20.2464C85.861 16.0932 89.1212 12.9277 93.6589 12.9277C98.1971 12.9277 101.457 16.0932 101.457 20.2464C101.457 24.3991 98.1971 27.5945 93.6589 27.5945C89.1212 27.5945 85.861 24.395 85.861 20.2464ZM97.5711 20.2464C97.5711 17.8858 95.9238 16.2119 93.6589 16.2119C91.3903 16.2119 89.7467 17.8817 89.7467 20.2464C89.7467 22.6364 91.3945 24.2804 93.6589 24.2804C95.928 24.2804 97.5711 22.6319 97.5711 20.2464Z" fill="#1B1340"/>
<path d="M114.067 20.2464C114.067 16.0932 117.327 12.9277 121.865 12.9277C126.398 12.9277 129.658 16.0932 129.658 20.2464C129.658 24.3991 126.398 27.5945 121.865 27.5945C117.327 27.5945 114.067 24.395 114.067 20.2464ZM125.773 20.2464C125.773 17.8858 124.125 16.2119 121.86 16.2119C119.595 16.2119 117.948 17.8817 117.948 20.2464C117.948 22.6364 119.595 24.2804 121.86 24.2804C124.125 24.2804 125.773 22.6319 125.773 20.2464Z" fill="#1B1340"/>
<path d="M131.707 27.2637V19.2885C131.707 15.5848 134.161 12.9233 138.541 12.9233C142.889 12.9233 145.343 15.5803 145.343 19.2885V27.2637H141.43V19.5848C141.43 17.5255 140.466 16.2371 138.541 16.2371C136.615 16.2371 135.65 17.5214 135.65 19.5848V27.2637H131.707Z" fill="#1B1340"/>
<path d="M112.886 16.2413H108.63V21.4708C108.63 23.2927 109.313 24.1276 111.269 24.1276C111.454 24.1276 111.921 24.1276 112.511 24.0982V27.1745C111.705 27.3825 110.991 27.5052 110.211 27.5052C106.92 27.5052 104.682 25.594 104.682 21.979V16.2413H102.039V13.2241H102.7C102.96 13.2241 103.22 13.1733 103.457 13.08C103.7 12.9826 103.916 12.8427 104.1 12.6647C104.286 12.4867 104.431 12.2791 104.532 12.046C104.634 11.813 104.682 11.5671 104.682 11.3171V8.47363H108.625V13.2241H112.881V16.2413H112.886Z" fill="#1B1340"/>
<path d="M153.136 6.94385H158.675L163.867 19.1331C164.329 20.1546 164.725 21.197 165.059 22.2611H165.113C165.446 21.197 165.842 20.1505 166.305 19.1331L171.497 6.94385H177.036V27.2709H173.023V13.6531C173.019 13.2038 173.041 12.7545 173.09 12.3095H173.023C172.898 12.7885 172.733 13.2589 172.525 13.7124L166.772 27.0335H163.444L157.674 13.7124C157.465 13.2546 157.287 12.7885 157.144 12.3095H157.082C157.127 12.7545 157.148 13.2038 157.144 13.6531V27.2749H153.136V6.94385Z" fill="#6D4AFF"/>
<path d="M190.761 13.8609C191.923 14.4415 192.883 15.3316 193.528 16.4206C194.218 17.6034 194.565 18.9425 194.538 20.2947V27.271H191.024L190.775 25.1772C190.316 25.936 189.644 26.5543 188.835 26.9697C187.967 27.3978 186.997 27.6139 186.019 27.5931C184.768 27.6057 183.54 27.2877 182.468 26.673C181.382 26.046 180.502 25.1473 179.915 24.0796C179.274 22.9013 178.953 21.5917 178.98 20.2648C178.962 18.9597 179.314 17.6754 179.995 16.5393C180.662 15.4375 181.627 14.5306 182.797 13.916C184.008 13.276 185.369 12.9454 186.753 12.9624C188.145 12.9369 189.524 13.2463 190.761 13.8609ZM189.475 23.2442C190.241 22.5493 190.619 21.5704 190.619 20.2648C190.668 19.1971 190.272 18.1543 189.524 17.3615C189.169 17.0059 188.741 16.7259 188.265 16.5312C187.789 16.3359 187.282 16.2385 186.766 16.2385C186.25 16.2385 185.738 16.3359 185.267 16.5312C184.79 16.7259 184.363 17.0059 184.008 17.3615C183.296 18.1756 182.904 19.2012 182.904 20.2607C182.904 21.3203 183.296 22.3459 184.008 23.1595C184.359 23.5242 184.786 23.8082 185.267 24.003C185.743 24.1937 186.259 24.2911 186.775 24.2784C187.273 24.287 187.772 24.1982 188.239 24.0202C188.697 23.8463 189.119 23.5794 189.475 23.2442Z" fill="#6D4AFF"/>
<path d="M196.705 10.3598C196.469 10.1521 196.282 9.90207 196.153 9.62234C196.024 9.34266 195.962 9.04173 195.966 8.73659C195.962 8.4314 196.029 8.12625 196.153 7.84226C196.282 7.55832 196.469 7.30401 196.705 7.09635C197.172 6.65558 197.804 6.40552 198.462 6.40552C199.121 6.40552 199.753 6.65558 200.22 7.09635C200.455 7.30826 200.642 7.56258 200.767 7.84226C200.891 8.12625 200.958 8.42718 200.954 8.73659C200.958 9.04173 200.896 9.34266 200.767 9.62234C200.642 9.90207 200.455 10.1521 200.22 10.3598C199.748 10.7921 199.116 11.0337 198.462 11.0337C197.804 11.0337 197.177 10.7921 196.705 10.3598ZM200.442 27.2707H196.492V13.263H200.442V27.2707Z" fill="#6D4AFF"/>
<path d="M207.276 27.2709H203.32V6.94385H207.276V27.2709Z" fill="#6D4AFF"/>
<path fill-rule="evenodd" clip-rule="evenodd" d="M33.9705 6.46666V33.8726H38.719C41.2026 33.8726 43.2146 31.9206 43.2146 29.5174V1.09725C43.2146 0.276176 42.2287 -0.170939 41.5757 0.353549L33.9705 6.46666Z" fill="url(#paint0_linear_56_67310)"/>
<path fill-rule="evenodd" clip-rule="evenodd" d="M27.347 11.7974L18.6716 19.2216C17.1923 20.4855 14.9844 20.5159 13.4696 19.295L-0.261353 8.23787V1.10162C-0.261353 0.280546 0.724802 -0.170873 1.37784 0.353615L18.6048 14.2048C20.2707 15.5461 22.687 15.5461 24.3529 14.2048L27.347 11.7974Z" fill="url(#paint1_linear_56_67310)"/>
<path d="M33.9706 6.47095L27.347 11.7974L27.3517 11.7973L18.6716 19.2216C17.1923 20.4854 14.9844 20.5158 13.4696 19.2949L-0.261353 8.2378V29.5174C-0.261353 31.9206 1.75097 33.8726 4.23416 33.8726H33.9706V6.47095Z" fill="url(#paint2_radial_56_67310)"/>
</g>
<defs>
<linearGradient id="paint0_linear_56_67310" x1="108.829" y1="55.7495" x2="100.685" y2="-28.7467" gradientUnits="userSpaceOnUse">
<stop offset="0.271" stop-color="#E3D9FF"/>
<stop offset="1" stop-color="#7341FF"/>
</linearGradient>
<linearGradient id="paint1_linear_56_67310" x1="25.4282" y1="34.1857" x2="8.79608" y2="-34.47" gradientUnits="userSpaceOnUse">
<stop stop-color="#E3D9FF"/>
<stop offset="1" stop-color="#7341FF"/>
</linearGradient>
<radialGradient id="paint2_radial_56_67310" cx="0" cy="0" r="1" gradientUnits="userSpaceOnUse" gradientTransform="translate(43.0252 4.25834) scale(50.7008 49.0653)">
<stop offset="0.5561" stop-color="#6D4AFF"/>
<stop offset="0.9944" stop-color="#AA8EFF"/>
</radialGradient>
<clipPath id="clip0_56_67310">
<rect width="207" height="34" fill="white"/>
</clipPath>
</defs>
</svg>
