<svg width="131" height="34" viewBox="0 0 131 34" fill="none" xmlns="http://www.w3.org/2000/svg">
<g clip-path="url(#clip0_74_10025)">
<path d="M42.2266 26.4861L43.8558 22.7021C45.6164 24.016 47.9551 24.6992 50.2675 24.6992C51.9755 24.6992 53.0529 24.0423 53.0529 23.0437C53.0266 20.2583 42.8309 22.4393 42.7521 15.4495C42.7258 11.9021 45.8791 9.16919 50.3463 9.16919C53.0003 9.16919 55.6544 9.82613 57.5463 11.3239L56.0223 15.1867C54.2879 14.0831 52.1332 13.2948 50.0835 13.2948C48.6908 13.2948 47.7711 13.9517 47.7711 14.7926C47.7974 17.5254 58.0719 16.0276 58.177 22.7021C58.177 26.3284 55.1025 28.8773 50.6879 28.8773C47.4558 28.8773 44.4864 28.1153 42.2266 26.4861Z" fill="black"/>
<path d="M104.74 21.3357C103.926 22.7547 102.402 23.7269 100.641 23.7269C98.0396 23.7269 95.9374 21.6247 95.9374 19.0233C95.9374 16.4218 98.0396 14.3196 100.641 14.3196C102.402 14.3196 103.926 15.2918 104.74 16.7108L109.234 14.2145C107.552 11.2188 104.32 9.16919 100.641 9.16919C95.2017 9.16919 90.787 13.5838 90.787 19.0233C90.787 24.4627 95.2017 28.8773 100.641 28.8773C104.346 28.8773 107.552 26.854 109.234 23.832L104.74 21.3357Z" fill="black"/>
<path d="M60.4366 0.99707H66.06V28.5096H60.4366V0.99707Z" fill="black"/>
<path d="M111.441 0.99707V28.5096H117.065V20.2585L123.739 28.5096H130.939L122.452 18.7081L130.308 9.56354H123.424L117.065 17.1577V0.99707H111.441Z" fill="black"/>
<path d="M82.7727 21.3882C81.9581 22.7284 80.2763 23.7269 78.3843 23.7269C75.7828 23.7269 73.6806 21.6247 73.6806 19.0233C73.6806 16.4218 75.7828 14.3196 78.3843 14.3196C80.2763 14.3196 81.9581 15.3707 82.7727 16.7371V21.3882ZM82.7727 9.56335V11.7969C81.8529 10.2466 79.5668 9.16919 77.1756 9.16919C72.2354 9.16919 68.3463 13.5313 68.3463 18.997C68.3463 24.4627 72.2354 28.8773 77.1756 28.8773C79.5668 28.8773 81.8529 27.7999 82.7727 26.2496V28.4832H88.396V9.56335H82.7727Z" fill="black"/>
<path d="M7.46113 21.3619C7.46113 23.2802 5.91075 24.8306 3.99249 24.8306C2.07424 24.8306 0.523865 23.2802 0.523865 21.3619C0.523865 19.4437 2.07424 17.8933 3.99249 17.8933H7.46113V21.3619Z" fill="#E01E5A"/>
<path d="M9.19543 21.3619C9.19543 19.4437 10.7458 17.8933 12.6641 17.8933C14.5823 17.8933 16.1327 19.4437 16.1327 21.3619V30.0335C16.1327 31.9518 14.5823 33.5021 12.6641 33.5021C10.7458 33.5021 9.19543 31.9518 9.19543 30.0335V21.3619Z" fill="#E01E5A"/>
<path d="M12.6641 7.43482C10.7458 7.43482 9.19543 5.88445 9.19543 3.96619C9.19543 2.04793 10.7458 0.497559 12.6641 0.497559C14.5823 0.497559 16.1327 2.04793 16.1327 3.96619V7.43482H12.6641Z" fill="#36C5F0"/>
<path d="M12.664 9.19531C14.5823 9.19531 16.1327 10.7457 16.1327 12.6639C16.1327 14.5822 14.5823 16.1326 12.664 16.1326H3.96619C2.04793 16.1326 0.497559 14.5822 0.497559 12.6639C0.497559 10.7457 2.04793 9.19531 3.96619 9.19531H12.664Z" fill="#36C5F0"/>
<path d="M26.5648 12.6639C26.5648 10.7457 28.1152 9.19531 30.0334 9.19531C31.9517 9.19531 33.5021 10.7457 33.5021 12.6639C33.5021 14.5822 31.9517 16.1326 30.0334 16.1326H26.5648V12.6639Z" fill="#2EB67D"/>
<path d="M24.8305 12.6641C24.8305 14.5823 23.2801 16.1327 21.3619 16.1327C19.4436 16.1327 17.8932 14.5823 17.8932 12.6641V3.96619C17.8932 2.04793 19.4436 0.497559 21.3619 0.497559C23.2801 0.497559 24.8305 2.04793 24.8305 3.96619V12.6641Z" fill="#2EB67D"/>
<path d="M21.3619 26.5649C23.2801 26.5649 24.8305 28.1153 24.8305 30.0336C24.8305 31.9518 23.2801 33.5022 21.3619 33.5022C19.4436 33.5022 17.8932 31.9518 17.8932 30.0336V26.5649H21.3619Z" fill="#ECB22E"/>
<path d="M21.3619 24.8306C19.4436 24.8306 17.8932 23.2802 17.8932 21.3619C17.8932 19.4437 19.4436 17.8933 21.3619 17.8933H30.0597C31.978 17.8933 33.5284 19.4437 33.5284 21.3619C33.5284 23.2802 31.978 24.8306 30.0597 24.8306H21.3619Z" fill="#ECB22E"/>
</g>
<defs>
<clipPath id="clip0_74_10025">
<rect width="130.333" height="34" fill="white"/>
</clipPath>
</defs>
</svg>
