<svg width="152" height="34" viewBox="0 0 152 34" fill="none" xmlns="http://www.w3.org/2000/svg">
<path d="M32.2575 33.49H5.65247C3.90997 33.49 2.20997 32.555 1.40247 30.9825C0.46747 29.155 0.80747 26.9875 2.25247 25.585L20.7825 7.055H7.47997C3.82497 7.055 0.892468 4.08 0.892468 0.467499H25.415C27.1575 0.467499 28.8575 1.4025 29.665 2.975C30.6 4.8025 30.26 6.97 28.815 8.3725L10.285 26.9025H25.6275C29.2825 26.9025 32.2575 29.8775 32.2575 33.49ZM137.572 0C133.747 0 130.347 1.6575 127.967 4.2925C125.587 1.6575 122.187 0 118.362 0C111.307 0 105.527 6.035 105.527 13.09V33.49C109.182 33.49 112.115 30.515 112.115 26.9025V13.0475C112.115 9.6475 114.75 6.7575 118.15 6.63C121.72 6.5025 124.652 9.35 124.652 12.8775V26.9025C124.652 30.5575 127.627 33.49 131.24 33.49V13.005C131.24 9.605 133.875 6.715 137.275 6.5875C140.845 6.46 143.777 9.3075 143.777 12.835V26.86C143.777 30.515 146.752 33.4475 150.365 33.4475V13.0475C150.407 6.035 144.627 0 137.572 0ZM65.5775 17C65.5775 26.3925 57.97 34 48.5775 34C39.185 34 31.5775 26.3925 31.5775 17C31.5775 7.6075 39.185 0 48.5775 0C57.97 0 65.5775 7.6075 65.5775 17ZM58.99 17C58.99 11.2625 54.315 6.5875 48.5775 6.5875C42.84 6.5875 38.165 11.2625 38.165 17C38.165 22.7375 42.84 27.4125 48.5775 27.4125C54.315 27.4125 58.99 22.7375 58.99 17ZM102.212 17C102.212 26.3925 94.605 34 85.2125 34C75.82 34 68.2125 26.3925 68.2125 17C68.2125 7.6075 75.82 0 85.2125 0C94.605 0 102.212 7.6075 102.212 17ZM95.625 17C95.625 11.2625 90.95 6.5875 85.2125 6.5875C79.475 6.5875 74.8 11.2625 74.8 17C74.8 22.7375 79.475 27.4125 85.2125 27.4125C90.95 27.4125 95.625 22.7375 95.625 17Z" fill="#0B5CFF"/>
</svg>
